<svg xmlns="http://www.w3.org/2000/svg" width="1000" height="560" viewBox="0 0 1000 560" role="img" aria-labelledby="title desc">
  <title id="title">华宝再生资源有限公司地址示意图</title>
  <desc id="desc">江苏省镇江市句容市华阳南路199号位置示意图</desc>
  <rect width="1000" height="560" fill="#eef3f0"/>
  <g opacity=".45" stroke="#c8ddd4" stroke-width="3">
    <path d="M0 95H1000M0 210H1000M0 335H1000M0 465H1000"/>
    <path d="M110 0V560M255 0V560M415 0V560M590 0V560M760 0V560M910 0V560"/>
  </g>
  <g fill="none" stroke-linecap="round" stroke-linejoin="round">
    <path d="M-40 405C95 345 175 325 285 335C440 350 545 270 680 255C805 242 900 286 1040 215" stroke="#9fc9b7" stroke-width="34" opacity=".55"/>
    <path d="M-30 395C105 335 183 318 290 329C438 344 545 260 678 247C810 235 900 275 1035 205" stroke="#ffffff" stroke-width="18" opacity=".95"/>
    <path d="M180 -40C225 98 260 182 355 250C475 338 530 438 555 610" stroke="#b8d8ca" stroke-width="28" opacity=".7"/>
    <path d="M190 -45C232 90 270 172 365 242C486 332 540 430 565 610" stroke="#ffffff" stroke-width="14" opacity=".95"/>
    <path d="M690 -40C645 92 632 165 660 245C700 365 682 450 650 610" stroke="#c7d8de" stroke-width="24" opacity=".68"/>
    <path d="M700 -45C656 92 643 160 670 240C710 360 692 448 660 610" stroke="#ffffff" stroke-width="12" opacity=".95"/>
    <path d="M80 85C235 142 360 155 520 130C700 102 800 122 940 165" stroke="#d4dfdb" stroke-width="22"/>
    <path d="M85 80C240 137 360 150 520 125C700 97 800 117 945 160" stroke="#ffffff" stroke-width="10"/>
  </g>
  <g font-family="Microsoft YaHei, PingFang SC, Arial, sans-serif">
    <rect x="70" y="70" width="205" height="46" rx="23" fill="#ffffff" opacity=".88"/>
    <text x="92" y="100" fill="#5d7472" font-size="18" font-weight="700">句容城区</text>
    <rect x="712" y="72" width="170" height="44" rx="22" fill="#ffffff" opacity=".84"/>
    <text x="735" y="100" fill="#5d7472" font-size="17" font-weight="700">通行主干道</text>
    <rect x="668" y="384" width="198" height="44" rx="22" fill="#ffffff" opacity=".84"/>
    <text x="692" y="412" fill="#5d7472" font-size="17" font-weight="700">华阳南路片区</text>
  </g>
  <g transform="translate(505 272)">
    <path d="M0-82C45-82 82-45 82 0C82 58 0 132 0 132S-82 58-82 0C-82-45-45-82 0-82Z" fill="#071827"/>
    <circle cx="0" cy="0" r="36" fill="#e7b943"/>
    <text x="0" y="8" text-anchor="middle" font-family="Microsoft YaHei, PingFang SC, Arial, sans-serif" font-size="24" font-weight="900" fill="#071827">华宝</text>
  </g>
  <g font-family="Microsoft YaHei, PingFang SC, Arial, sans-serif">
    <rect x="318" y="438" width="365" height="72" rx="8" fill="#071827"/>
    <text x="500" y="468" text-anchor="middle" fill="#ffffff" font-size="22" font-weight="900">华宝再生资源有限公司</text>
    <text x="500" y="495" text-anchor="middle" fill="#c8d5d4" font-size="17">江苏省镇江市句容市华阳南路199号</text>
  </g>
</svg>
